HIERARCHY
ROOT Hips
{
	OFFSET -3.958830 18.904000 13.208200
	CHANNELS 6 Xposition Yposition Zposition Zrotation Yrotation Xrotation 
	JOINT LHipJoint
	{
		OFFSET 0.000000 0.000000 0.000000
		CHANNELS 3 Zrotation Yrotation Xrotation
		JOINT LeftUpLeg
		{
			OFFSET 1.800000 -1.400000 0.085000
			CHANNELS 3 Zrotation Yrotation Xrotation
			JOINT LeftLeg
			{
				OFFSET 2.215000 -6.000000 0.000000
				CHANNELS 3 Zrotation Yrotation Xrotation
				JOINT LeftFoot
				{
					OFFSET 2.500000 -6.900000 0.000000
					CHANNELS 3 Zrotation Yrotation Xrotation
					JOINT LeftToeBase
					{
						OFFSET 0.200000 -0.500000 1.950000
						CHANNELS 3 Zrotation Yrotation Xrotation
						End Site
						{
							OFFSET 0.000000 0.000000 0.000000
						}
					}
				}
			}
		}
	}
	JOINT RHipJoint
	{
		OFFSET 0.000000 0.000000 0.000000
		CHANNELS 3 Zrotation Yrotation Xrotation
		JOINT RightUpLeg
		{
			OFFSET -1.800000 -1.400000 0.085000
			CHANNELS 3 Zrotation Yrotation Xrotation
			JOINT RightLeg
			{
				OFFSET -2.215000 -6.000000 0.000000
				CHANNELS 3 Zrotation Yrotation Xrotation
				JOINT RightFoot
				{
					OFFSET -2.500000 -6.900000 0.000000
					CHANNELS 3 Zrotation Yrotation Xrotation
					JOINT RightToeBase
					{
						OFFSET -0.200000 -0.500000 1.950000
						CHANNELS 3 Zrotation Yrotation Xrotation
						End Site
						{
							OFFSET 0.000000 0.000000 0.000000
						}
					}
				}
			}
		}
	}
	JOINT LowerBack
	{
		OFFSET 0.000000 0.000000 0.000000
		CHANNELS 3 Zrotation Yrotation Xrotation
		JOINT Spine
		{
			OFFSET -0.087000 1.940000 -0.288900
			CHANNELS 3 Zrotation Yrotation Xrotation
			JOINT Spine1
			{
				OFFSET 0.000000 1.950000 0.060000
				CHANNELS 3 Zrotation Yrotation Xrotation
				JOINT Neck
				{
					OFFSET 0.000000 0.000000 0.000000
					CHANNELS 3 Zrotation Yrotation Xrotation
					JOINT Neck1
					{
						OFFSET 0.000000 1.600000 0.340000
						CHANNELS 3 Zrotation Yrotation Xrotation
						JOINT Head
						{
							OFFSET 0.000000 1.667000 -0.240000
							CHANNELS 3 Zrotation Yrotation Xrotation
							End Site
							{
								OFFSET 0.000000 0.000000 0.000000
							}
						}
					}
				}
				JOINT LeftShoulder
				{
					OFFSET 0.000000 0.000000 0.000000
					CHANNELS 3 Zrotation Yrotation Xrotation
					JOINT LeftArm
					{
						OFFSET 2.700000 1.550000 -0.730000
						CHANNELS 3 Zrotation Yrotation Xrotation
						JOINT LeftForeArm
						{
							OFFSET 5.450000 0.000000 0.000000
							CHANNELS 3 Zrotation Yrotation Xrotation
							JOINT LeftHand
							{
								OFFSET 3.450000 0.000000 0.000000
								CHANNELS 3 Zrotation Yrotation Xrotation
								JOINT LeftHandIndex1
								{
									OFFSET 0.750000 0.000000 0.000000
									CHANNELS 3 Zrotation Yrotation Xrotation
									End Site
									{
										OFFSET 0.000000 0.000000 0.000000
									}
								}
							}
						}
					}
				}
				JOINT RightShoulder
				{
					OFFSET 0.000000 0.000000 0.000000
					CHANNELS 3 Zrotation Yrotation Xrotation
					JOINT RightArm
					{
						OFFSET -2.700000 1.550000 -0.730000
						CHANNELS 3 Zrotation Yrotation Xrotation
						JOINT RightForeArm
						{
							OFFSET -5.450000 0.000000 0.000000
							CHANNELS 3 Zrotation Yrotation Xrotation
							JOINT RightHand
							{
								OFFSET -3.450000 0.000000 0.000000
								CHANNELS 3 Zrotation Yrotation Xrotation
								JOINT RightHandIndex1
								{
									OFFSET -0.750000 0.000000 0.000000
									CHANNELS 3 Zrotation Yrotation Xrotation
									End Site
									{
										OFFSET 0.000000 0.000000 0.000000
									}
								}
							}
						}
					}
				}
			}
		}
	}
}
MOTION
Frames: 10
Frame Time: 0.016667
21.776190 18.003340 -20.129210 -49.612859 -60.872158 19.549086 -15.321907 12.308990 3.180738 27.004970 2.579422 -26.518142 -0.993071 6.499009 15.925629 0.063706 4.231173 2.698172 0.368250 0.535240 0.092800 18.345830 -8.334895 5.383026 -12.071819 17.814028 -41.759766 28.033309 -21.803402 46.821574 -1.686602 -9.490566 1.028208 0.086060 -0.297080 0.009190 -4.049234 -2.837782 -9.431704 48.214287 -13.830704 30.699574 -21.112154 8.103378 7.162992 16.368804 1.663123 -24.772227 -6.789953 -15.805398 43.062290 -0.649630 -20.085540 -12.740110 -9.409264 -36.668911 15.019367 -30.585440 -51.512333 14.977858 3.243109 5.499480 0.692954 -3.717044 2.919817 0.365900 -0.355190 0.369010 0.211610 -22.831342 45.184460 4.552622 -18.140581 -5.986431 -27.352209 -52.656667 49.953239 -15.315586 4.087717 -2.893954 0.146100 -0.065740 -0.319890 0.188250 
21.749850 17.966810 -20.114500 -50.425894 -59.894044 23.854297 -15.399857 11.794616 3.549663 27.394849 2.431021 -28.891961 -1.704773 5.815950 10.242673 0.120989 3.916804 2.817974 0.269590 0.393450 0.061270 18.377065 -7.926749 5.458790 -13.131495 18.177520 -44.942296 30.164569 -21.045288 42.911533 -1.528020 -8.878298 1.212083 -0.035650 -0.315280 0.012640 -4.146366 -2.908754 -9.642334 49.841786 -13.400062 27.917463 -22.698171 9.236975 3.283236 15.475753 2.355106 -25.096622 -5.919462 -16.451513 43.606817 -0.755840 -20.598680 -9.308570 -8.119184 -36.232506 14.551700 -37.161487 -50.400126 17.301033 3.780616 5.467249 0.877543 -3.491062 3.079236 0.366910 -0.362120 0.358390 0.177860 -21.829308 44.569589 4.585992 -17.463614 -3.762799 -25.919516 -52.973465 49.454560 -15.390709 3.895900 -2.678514 0.153280 -0.142840 -0.304710 0.182780 
21.812060 17.912080 -20.204920 -48.692662 -59.367957 21.925671 -15.597585 11.701960 4.310678 27.347030 2.062438 -28.107592 -4.612488 4.874613 0.665279 0.170748 3.856301 2.835635 0.272590 0.369560 0.160750 18.134834 -7.642552 5.257733 -13.292699 17.369474 -43.941842 30.200252 -17.165946 35.608418 -1.201193 -7.155688 1.721785 -0.084180 -0.444900 -0.020270 -3.750754 -3.673577 -9.839648 46.223681 -15.387319 32.303235 -22.335021 8.881305 -0.180009 15.370594 3.969229 -26.738998 -4.850638 -15.495026 47.575353 0.138230 -18.975190 -12.620120 -5.406927 -36.768908 16.131979 -35.738221 -49.939696 16.453978 4.166992 3.650700 0.868614 -3.322221 2.975427 0.523540 -0.470680 0.467570 0.127090 -23.547492 43.817383 4.602602 -19.155597 -3.940268 -26.042804 -49.956832 43.145681 -11.808422 3.879555 -2.500132 0.127180 -0.155740 -0.341110 0.111610 
21.806710 17.783350 -20.252170 -46.490511 -59.317772 20.722342 -15.782256 10.945089 5.353270 26.854851 1.352355 -23.913126 -7.367573 3.110585 -14.878826 0.423570 4.535306 2.692990 0.280470 0.362960 0.181150 17.989239 -7.301925 4.898692 -13.246115 16.728397 -43.575799 27.824452 -11.782633 26.636423 -0.763994 -5.034340 2.390372 -0.093680 -0.461400 -0.008170 -3.682154 -3.580891 -10.158422 44.077216 -15.075448 32.702666 -21.708036 8.600682 -0.972511 14.771013 4.506577 -26.512619 -3.567424 -15.467272 48.164240 0.826980 -17.930820 -14.381130 -4.479144 -36.911707 15.756085 -35.554509 -50.254723 17.570906 2.323160 3.013704 0.952469 -3.324056 2.915443 0.566970 -0.487630 0.484310 0.109060 -23.417662 42.937910 4.928317 -19.952714 -3.540664 -25.551814 -49.147261 37.429809 -10.332652 3.838613 -2.390639 0.124740 -0.157250 -0.323610 0.084220 
21.814860 17.713660 -20.223720 -45.162912 -59.216163 20.128319 -15.862530 10.491698 5.936183 25.771579 1.136306 -23.012062 -9.781601 2.151278 -21.994275 0.558683 4.943093 2.602333 0.251530 0.330030 0.167130 17.942431 -7.220207 4.581740 -13.567738 15.671852 -42.314357 25.718075 -8.140331 19.066236 -0.510244 -3.590513 2.866641 -0.116300 -0.467630 -0.011610 -3.801828 -3.351517 -10.246847 45.577275 -15.467851 31.441475 -22.734360 8.557969 -2.193320 14.436547 4.821528 -25.955974 -3.326180 -14.968574 50.352146 0.879370 -17.442450 -15.879760 -5.871751 -36.673974 15.024401 -37.887531 -49.423124 18.425189 1.879553 1.675243 0.891284 -3.257302 2.902683 0.604560 -0.505550 0.495930 0.077870 -21.741023 42.340639 4.572160 -20.953242 -0.998223 -23.749330 -47.993326 33.739673 -9.226245 3.584416 -2.139325 0.116860 -0.123810 -0.268540 0.059860 
21.835860 17.548600 -20.228740 -44.082527 -59.522706 22.219791 -15.895256 9.661673 6.184144 24.277023 1.030960 -24.965131 -11.420448 1.119960 -27.486279 0.687433 5.071736 2.619850 0.283270 0.349110 0.130370 18.035195 -6.951900 4.709900 -16.576464 15.822682 -46.080370 25.175488 -5.481517 13.106534 -0.327963 -2.916014 3.095150 -0.091200 -0.379420 0.030340 -4.215551 -2.488126 -10.508925 46.152303 -14.546986 27.911421 -22.405918 8.166926 -0.182572 13.826110 3.074437 -24.431254 -4.224534 -15.518417 45.138862 2.051000 -18.246460 -12.129110 -4.825437 -36.594539 13.999996 -37.970579 -49.597030 18.709849 0.536312 0.617114 0.965118 -3.293565 3.034426 0.482130 -0.430960 0.405210 0.133840 -21.776540 42.304900 4.330716 -22.303884 -0.570540 -23.880809 -47.605079 28.530559 -8.488073 3.709192 -2.294727 0.149710 -0.188970 -0.296600 0.119470 
21.857400 17.436780 -20.208150 -46.439807 -60.544786 28.524907 -16.044786 8.845663 6.535465 23.952687 1.542058 -26.087315 -12.005390 0.362417 -34.080830 0.827051 5.429706 2.589890 0.157220 0.199380 0.051920 18.037091 -6.477872 4.873779 -17.741328 16.815384 -50.038991 23.373549 -2.657418 6.550495 -0.121004 -2.198782 3.391170 -0.147670 -0.255290 0.071940 -4.397732 -2.199516 -10.858959 47.252039 -14.077153 25.300238 -22.865930 8.641803 0.150035 14.821575 2.739602 -24.160976 -2.287616 -16.304296 39.981437 -4.176840 -15.055480 -5.498520 -7.480732 -36.033757 14.672486 -38.461544 -47.891812 16.667411 3.805978 -0.491114 0.633682 -3.410422 3.139545 0.357850 -0.273580 0.288480 0.122680 -21.221557 42.919039 3.579030 -23.828560 -0.056288 -23.978469 -47.648248 24.458495 -7.754472 3.772490 -2.331328 0.117200 -0.211400 -0.224370 0.121660 
21.898280 17.341820 -20.285600 -40.272859 -61.421589 21.940280 -16.071068 9.469466 6.474200 19.627197 0.912122 -23.490623 -13.930921 -0.642192 -36.664364 0.854629 5.291242 2.674073 0.162410 0.192520 0.081810 17.906678 -6.505286 4.851477 -18.080684 15.307705 -48.877480 19.345649 -1.460383 3.648126 -0.084479 -1.678961 3.578091 -0.172710 -0.303890 0.051410 -3.959681 -2.848974 -10.824727 41.888537 -12.954511 29.037656 -20.821853 8.645406 -1.465806 14.109362 3.513226 -25.255421 -2.383721 -15.625096 43.621444 -2.987320 -15.548960 -6.932160 -6.782352 -36.750652 14.746149 -36.950293 -47.983974 16.771711 0.983945 -3.470033 0.795356 -3.316587 2.994688 0.431090 -0.336020 0.342410 0.110770 -20.029292 43.480892 5.129384 -23.536578 -0.644048 -23.990050 -48.213775 20.444264 -6.982790 3.768547 -2.196817 0.115380 -0.186870 -0.229520 0.101320 
21.936030 17.231400 -20.288580 -37.166853 -61.169070 19.974243 -16.005112 9.788374 6.139132 17.981469 0.456920 -23.407249 -17.500655 -0.811504 -32.585734 0.791629 5.184481 2.701017 0.131530 0.147530 0.067500 17.925637 -6.493087 5.039606 -19.071514 14.469963 -50.039105 16.637426 -0.106134 -0.843185 -0.036326 -1.401352 3.675983 -0.192870 -0.288660 0.050290 -3.841806 -3.008638 -10.744811 40.366067 -13.316314 29.608166 -20.760466 7.899828 -1.869125 14.312985 3.296900 -25.419467 -2.363055 -15.632269 42.323034 -3.450800 -14.938690 -6.754340 -7.152464 -36.613938 14.932453 -35.505756 -47.396805 15.160289 0.695401 -6.497679 0.695199 -3.296374 2.980350 0.424380 -0.323550 0.312760 0.088640 -19.892681 43.421877 5.278540 -24.442744 -0.577567 -23.945493 -47.480562 15.932280 -5.987791 3.796971 -2.157818 0.102780 -0.191400 -0.196760 0.088150 
22.009800 17.207400 -20.353670 -31.016653 -60.626483 12.050021 -15.834687 11.501641 5.172552 14.920129 -0.024944 -18.966209 -20.593080 1.446040 -19.534186 0.583866 4.730447 2.797491 0.139620 0.107300 0.175750 17.859840 -6.870411 5.144057 -15.248013 12.742872 -47.906374 10.036822 0.644027 -5.605540 -0.043981 -0.845606 3.865350 -0.252920 -0.417600 0.032760 -2.948384 -4.412048 -10.275408 33.584219 -14.054745 37.178737 -19.918052 6.875858 -6.231294 14.407921 5.663369 -28.004594 -0.061338 -14.565768 46.973040 -3.080940 -13.212490 -10.348030 -9.223313 -37.259724 16.916306 -33.093802 -46.424182 12.845856 1.624004 -7.741436 0.507465 -3.189188 2.885974 0.584650 -0.437700 0.414210 0.024890 -17.484424 43.450359 5.991053 -26.089196 0.086437 -23.103841 -46.879343 11.508721 -4.774397 3.730927 -1.915659 0.088640 -0.202010 -0.204740 0.005400 
